PathFileType	4	(X/Y/Z)	0_1_26_p0_0-249.trc
DataRate	CameraRate	NumFrames	NumMarkers	Units	OrigDataRate	OrigDataStartFrame	OrigNumFrames
60	60	5	27	m	60	62	249
Frame#	Time	RHip			RKnee			RAnkle			RBigToe			RSmallToe			RHeel			LHip			LKnee			LAnkle			LBigToe			LSmallToe			LHeel			Neck			Head			Nose			RShoulder			RElbow			RWrist			RThumb			RIndex			RPinky			LShoulder			LElbow			LWrist			LThumb			LIndex			LPinky		
		X1	Y1	Z1	X2	Y2	Z2	X3	Y3	Z3	X4	Y4	Z4	X5	Y5	Z5	X6	Y6	Z6	X7	Y7	Z7	X8	Y8	Z8	X9	Y9	Z9	X10	Y10	Z10	X11	Y11	Z11	X12	Y12	Z12	X13	Y13	Z13	X14	Y14	Z14	X15	Y15	Z15	X16	Y16	Z16	X17	Y17	Z17	X18	Y18	Z18	X19	Y19	Z19	X20	Y20	Z20	X21	Y21	Z21	X22	Y22	Z22	X23	Y23	Z23	X24	Y24	Z24	X25	Y25	Z25	X26	Y26	Z26	X27	Y27	Z27
63	1.05	0.11643684713037607	0.2155823260251401	0.06714582433621392	0.13149908143946656	0.21627172743208095	-0.382268353763786	0.1589458084412744	0.2005821888548217	-0.785419790708945	0.17255204574017494	0.06548587217651858	-0.794173289665998	0.10014697869728147	0.08245178044425845	-0.8019211400054507	0.16784379444260045	0.2210926806637784	-0.8283239448535225	0.33357239873138506	0.20221161463920737	0.07205006728255559	0.33642825994721154	0.18783260365719237	-0.3707901973327601	0.3528901129945953	0.23711190100733492	-0.8275321207632697	0.32744896243787824	0.07116649161763501	-0.7928286430962987	0.3767174604198236	0.11075730946482756	-0.8047727276986965	0.33411634655492656	0.2734163243871696	-0.8740775677610435	0.22151907359714013	0.2769435228457732	0.53615840603077	0.18869390496275196	0.19591741068879898	0.7957462783421577	0.18799044475824894	0.1526762572909565	0.6612558338234406	0.05925103254549162	0.2615518289790871	0.4889022881969236	-0.03463206877012755	0.3327250252246352	0.22871322050877943	0.014018230680598645	0.1984140642137788	0.05196307044575489	0.08851400846509044	0.12060316821134681	-0.005660681442335396	0.0788353694211272	0.09076297178977459	-0.018394490686371192	0.04793648160285793	0.13535166758191877	-0.057874289986120646	0.36013569194213024	0.2595350025820314	0.4823730284324979	0.435951930416298	0.2775943837189537	0.21832455728090944	0.39993210915013117	0.13515764617863268	0.03724104536679794	0.33945411494665967	0.1387262153613893	-0.050918215106397054	0.3493297454411802	0.1288386553633497	-0.0917888521423627	0.4124184742197834	0.13113340475874638	-0.09494931270277303
64	1.0666666666666667	0.11640639186685137	0.21559131075326235	0.06721176412771686	0.13161202249847073	0.21587168835002818	-0.3823250206491699	0.15984598588568266	0.1998653455858247	-0.7900561332763454	0.17236998107720056	0.06592794795290995	-0.7944826332056519	0.10006331229112188	0.0825593140643621	-0.802041765461082	0.1687278922715664	0.2209954970166627	-0.8337342230139431	0.33361718148789127	0.20231067608275158	0.0720763335249327	0.3364342289768543	0.1879373125068326	-0.37128824117714926	0.35287323031805473	0.23705715621947962	-0.8277865441356193	0.32606806299489804	0.056329527901818895	-0.7819093127143688	0.37745186559503585	0.10986491849945924	-0.808626210056829	0.3341491641336921	0.27391784033406974	-0.8745848532425726	0.2214493786770619	0.27700959387671	0.5362323050830805	0.18881516007592314	0.196301896081586	0.7990482971384397	0.18798591048611163	0.15253056317807717	0.6613941584058852	0.05913889474638166	0.26189792400419437	0.48892783933842693	-0.03452295292617033	0.3338315182753477	0.23222204927161164	0.013984397453601412	0.19910625450587954	0.05238117362151249	0.08912830106102958	0.12019825520385971	-0.001421125687349952	0.07850437733361113	0.09253984572692057	-0.009861288029709417	0.05118239478215628	0.12660314548961354	-0.03310351569402326	0.360075859136486	0.25938963690993055	0.4825101325444598	0.44126716851194525	0.2921089788048279	0.2204186238085231	0.39456920683443386	0.12186266610724589	0.04706788326108138	0.3388686291888792	0.13878510338441877	-0.042615909494347	0.34380677369176343	0.11845249216687732	-0.08266227994268477	0.4064649011935521	0.11874146072525198	-0.0887113028198764
65	1.0833333333333333	0.11993090442644753	0.21424689330964217	0.06377859662796385	0.13155292745829422	0.21564662864651082	-0.3823200632607114	0.1598551488314095	0.19988750570475494	-0.7901204082298666	0.17244913517662663	0.0658790021255908	-0.7944982139445265	0.10009108674591753	0.08263719036398422	-0.802133272663138	0.16780823920526655	0.22167613445042322	-0.8287283192389628	0.3334775713127764	0.2036403693927575	0.0713453862476125	0.33588763482805556	0.18872695064841083	-0.3758988748080213	0.3528591298473668	0.23700178752850867	-0.827733642129397	0.3315566546613075	0.0687337766468315	-0.7914335818137374	0.37654804018433574	0.11042756534210874	-0.8046839459296721	0.3342005370572235	0.27384829914196346	-0.8745352943747114	0.21760485518291817	0.27901978051002546	0.5358312080610722	0.18878117754335932	0.19631116586277297	0.799061455560977	0.18433255557383957	0.1541589476182306	0.661205565366824	0.05908757413923335	0.26185123506381597	0.48897719045311383	-0.034715965945240575	0.3330266561664719	0.22900178386961392	0.01517706010531295	0.19972757538920746	0.06420871284845445	0.09339334829392623	0.10628385364040834	0.01589741390416492	0.07490019169622236	0.07968909437428613	0.0011530611544941425	0.054876057101884944	0.11600882570901212	-0.02433697804654479	0.3601162447031933	0.2592615805805738	0.48259504472838016	0.4418111360731538	0.29189365238891013	0.2255635116735589	0.38850966846385965	0.10904546578671952	0.052504647335240545	0.3386201442395627	0.13797909242249168	-0.037080416075918304	0.34341103279277135	0.11833791749674241	-0.08250312355879878	0.39237312217649134	0.10460971205350159	-0.08156771119534063
66	1.1	0.12075009186164783	0.21460594437813257	0.07152975235003514	0.13108371364131063	0.2160612519668809	-0.3875591797615561	0.15990818064795903	0.19980820064567203	-0.7902172624275283	0.17252666518769622	0.06585224067062856	-0.7944845477772094	0.1002253267735089	0.0824538263203493	-0.8020750426581562	0.16785797347226958	0.22152555146851416	-0.8288552614830366	0.3338109603163749	0.20323773866204758	0.07577235123645183	0.3358472513708792	0.18894523443328448	-0.3759678007697685	0.352841292105637	0.23710253677361298	-0.8278990030661467	0.32602877643760436	0.05644249807287724	-0.7819022602071528	0.37738022394848697	0.10967434347066424	-0.8084285887017781	0.33412651133181603	0.2741439268455192	-0.8746926050915353	0.21762250814664522	0.2789126537180228	0.5359164986163573	0.18871041784303974	0.19613087963755033	0.7990852995787202	0.1844037558055493	0.15407456216221657	0.6647711680979629	0.05893620996304714	0.2619093402909895	0.48900152436457384	-0.03464928860061252	0.33285431211860167	0.229009692810747	0.019323806916809474	0.19845757766026473	0.06884590621142843	0.10008389252522792	0.07004577250656004	0.04322795911985751	0.07777485241829692	0.06898556840707369	0.0135923395752323	0.06515632360099961	0.09310745419464367	-0.010366393045190488	0.36005230713027386	0.25920262937086497	0.48266754561820285	0.441830032866276	0.2916869472271623	0.2255252974414969	0.38837077220551497	0.10832591649741306	0.052949131512571426	0.3328591986245107	0.12694027571622762	-0.027840198644595946	0.33739428782547154	0.13112424662392586	-0.08806255499949484	0.38211973755760187	0.09383658547856688	-0.07566703974913752
67	1.1166666666666667	0.12036459780275324	0.21294627430502305	0.06465669599631411	0.13109371933747013	0.2157267159234894	-0.38744726131975477	0.1599150255207681	0.1998324171903858	-0.7902016390653631	0.17247264843339455	0.06559185582705948	-0.7942619746653814	0.10032090350369423	0.08225145115107804	-0.8019450984078116	0.16870321666214924	0.22099490701658514	-0.833917755322561	0.33365074505326836	0.20234951104135732	0.07225055123230956	0.3358638034666208	0.1886056325300803	-0.3759682677901043	0.3467594700741393	0.22265758359217316	-0.8172867822001504	0.32601251751884025	0.0561780580760656	-0.7816899378517083	0.3713885279537629	0.0964463388476285	-0.7982507507586352	0.3340747320636747	0.27373918541318176	-0.8745103072841742	0.21770190544207402	0.27967074369159434	0.5393200186699433	0.18870043624320854	0.1960720238725482	0.7991054490876436	0.1843276225231307	0.15425673899595171	0.6646936104017261	0.058925893763257575	0.262154837466778	0.4889530291806642	-0.03464248453793814	0.3327291747536813	0.22909035038193004	0.022879337194466904	0.1872115590192847	0.07350658213131912	0.11153958609443639	0.04723568191804056	0.05323552128863447	0.08773088853501784	0.0478652138937069	0.024358270821821515	0.0658125393767846	0.09295471043320633	-0.006588872329222904	0.3600490946883981	0.2591263586060974	0.4827354827606806	0.44155482080722264	0.29076822475459735	0.22485512599639362	0.3846027834754244	0.11016490087997222	0.05600125800340804	0.3273169266022139	0.11596760487571907	-0.019349745057511237	0.3336394785112859	0.10996754768522359	-0.07024612326489578	0.37236622891019006	0.08449474403537323	-0.07091581566570893
